<svg width="12" height="13" viewBox="0 0 12 13" fill="none" xmlns="http://www.w3.org/2000/svg">
<g id="Outline / Time / Calendar Minimalistic">
<path id="Vector" fill-rule="evenodd" clip-rule="evenodd" d="M3.5 1.375C3.70711 1.375 3.875 1.54289 3.875 1.75V2.13136C4.20602 2.12499 4.5707 2.125 4.97179 2.125H7.02821C7.4293 2.125 7.79399 2.12499 8.125 2.13136V1.75C8.125 1.54289 8.29289 1.375 8.5 1.375C8.70711 1.375 8.875 1.54289 8.875 1.75V2.16354C9.00497 2.17345 9.12805 2.18591 9.24451 2.20157C9.83072 2.28038 10.3052 2.44644 10.6794 2.82062C11.0536 3.1948 11.2196 3.66928 11.2984 4.25549C11.3236 4.44283 11.3405 4.64729 11.3519 4.87004C11.3668 4.91053 11.375 4.95431 11.375 5C11.375 5.03466 11.3703 5.06822 11.3615 5.10008C11.375 5.50107 11.375 5.95638 11.375 6.47179V7.52821C11.375 8.44709 11.375 9.1749 11.2984 9.74451C11.2196 10.3307 11.0536 10.8052 10.6794 11.1794C10.3052 11.5536 9.83072 11.7196 9.24451 11.7984C8.6749 11.875 7.94709 11.875 7.02821 11.875H4.9718C4.05291 11.875 3.3251 11.875 2.75549 11.7984C2.16928 11.7196 1.6948 11.5536 1.32062 11.1794C0.94644 10.8052 0.780382 10.3307 0.701568 9.74451C0.624986 9.1749 0.624992 8.44709 0.625 7.52821V6.47179C0.624996 5.95637 0.624992 5.50107 0.638504 5.10008C0.629703 5.06822 0.625 5.03466 0.625 5C0.625 4.95431 0.633172 4.91052 0.648134 4.87003C0.659477 4.64729 0.67638 4.44283 0.701568 4.25549C0.780382 3.66928 0.94644 3.1948 1.32062 2.82062C1.6948 2.44644 2.16928 2.28038 2.75549 2.20157C2.87195 2.18591 2.99503 2.17345 3.125 2.16354V1.75C3.125 1.54289 3.29289 1.375 3.5 1.375ZM1.38154 5.375C1.37516 5.70136 1.375 6.07299 1.375 6.5V7.5C1.375 8.45341 1.3758 9.13074 1.44488 9.64458C1.51251 10.1476 1.63935 10.4374 1.85095 10.649C2.06256 10.8607 2.35238 10.9875 2.85542 11.0551C3.36926 11.1242 4.04659 11.125 5 11.125H7C7.95341 11.125 8.63074 11.1242 9.14458 11.0551C9.64762 10.9875 9.93744 10.8607 10.149 10.649C10.3607 10.4374 10.4875 10.1476 10.5551 9.64458C10.6242 9.13074 10.625 8.45341 10.625 7.5V6.5C10.625 6.07299 10.6248 5.70136 10.6185 5.375H1.38154ZM10.5842 4.625H1.41584C1.42385 4.5303 1.43343 4.44062 1.44488 4.35542C1.51251 3.85238 1.63935 3.56256 1.85095 3.35095C2.06256 3.13935 2.35238 3.01251 2.85542 2.94488C3.36926 2.8758 4.04659 2.875 5 2.875H7C7.95341 2.875 8.63074 2.8758 9.14458 2.94488C9.64762 3.01251 9.93744 3.13935 10.149 3.35095C10.3607 3.56256 10.4875 3.85238 10.5551 4.35542C10.5666 4.44062 10.5762 4.5303 10.5842 4.625Z" fill="#001A1F" />
</g>
</svg>
