<svg width="12" height="13" viewBox="0 0 12 13" fill="none" xmlns="http://www.w3.org/2000/svg">
<g id="Outline / Time / Clock Circle">
<path id="Vector" fill-rule="evenodd" clip-rule="evenodd" d="M6 1.875C3.44568 1.875 1.375 3.94568 1.375 6.5C1.375 9.05432 3.44568 11.125 6 11.125C8.55432 11.125 10.625 9.05432 10.625 6.5C10.625 3.94568 8.55432 1.875 6 1.875ZM0.625 6.5C0.625 3.53147 3.03147 1.125 6 1.125C8.96853 1.125 11.375 3.53147 11.375 6.5C11.375 9.46853 8.96853 11.875 6 11.875C3.03147 11.875 0.625 9.46853 0.625 6.5ZM6 4.125C6.20711 4.125 6.375 4.29289 6.375 4.5V6.34467L7.51516 7.48484C7.66161 7.63128 7.66161 7.86872 7.51516 8.01516C7.36872 8.16161 7.13128 8.16161 6.98484 8.01516L5.73484 6.76516C5.66451 6.69484 5.625 6.59946 5.625 6.5V4.5C5.625 4.29289 5.79289 4.125 6 4.125Z" fill="#001A1F" />
</g>
</svg>
