<?xml version="1.0" encoding="iso-8859-1"?>
<!-- Generator: Adobe Illustrator 17.1.0, SVG Export Plug-In . SVG Version: 6.00 Build 0)  -->
<!DOCTYPE svg PUBLIC "-//W3C//DTD SVG 1.1//EN" "http://www.w3.org/Graphics/SVG/1.1/DTD/svg11.dtd">
<svg version="1.1" id="Capa_1" xmlns="http://www.w3.org/2000/svg" xmlns:xlink="http://www.w3.org/1999/xlink" x="0px" y="0px"
	 viewBox="0 0 283.544 283.544" style="enable-background:new 0 0 283.544 283.544;" xml:space="preserve">
<path d="M263.544,220.613h-55.641c41.161-47,39.468-118.261-5.096-162.825c-22.444-22.444-52.286-34.908-84.028-34.908
	c-31.741,0-61.583,12.31-84.027,34.755c-46.334,46.333-46.334,121.698,0,168.031c22.444,22.444,52.286,34.997,84.027,34.997
	c2.519,0,5.024-0.05,7.516-0.05h137.25c11.046,0,20-8.954,20-20S274.59,220.613,263.544,220.613z M48.592,172.02
	c-16.793,0-30.407-13.614-30.407-30.407s13.614-30.407,30.407-30.407c16.793,0,30.407,13.614,30.407,30.407
	S65.386,172.02,48.592,172.02z M118.778,242.206c-16.793,0-30.407-13.614-30.407-30.407c0-16.793,13.614-30.407,30.407-30.407
	c16.793,0,30.407,13.614,30.407,30.407C149.185,228.592,135.571,242.206,118.778,242.206z M110.143,132.978
	c4.769-4.769,12.5-4.769,17.269,0c4.769,4.769,4.769,12.5,0,17.269c-4.769,4.769-12.5,4.769-17.269,0
	C105.375,145.478,105.375,137.747,110.143,132.978z M118.778,101.834c-16.793,0-30.407-13.614-30.407-30.407
	c0-16.794,13.614-30.407,30.407-30.407c16.793,0,30.407,13.614,30.407,30.407C149.185,88.221,135.571,101.834,118.778,101.834z
	 M158.556,141.613c0-16.794,13.614-30.407,30.407-30.407c16.794,0,30.407,13.614,30.407,30.407s-13.614,30.407-30.407,30.407
	C172.17,172.02,158.556,158.406,158.556,141.613z"/>
<g>
</g>
<g>
</g>
<g>
</g>
<g>
</g>
<g>
</g>
<g>
</g>
<g>
</g>
<g>
</g>
<g>
</g>
<g>
</g>
<g>
</g>
<g>
</g>
<g>
</g>
<g>
</g>
<g>
</g>
</svg>
